<svg width="614" height="475" viewBox="0 0 614 475" fill="none" xmlns="http://www.w3.org/2000/svg">
<g clip-path="url(#clip0_405_74)">
<g opacity="0.7">
<g opacity="0.7">
<g opacity="0.7">
<g opacity="0.7">
<path opacity="0.7" d="M108.23 431.445L159.318 401.962L211.352 396.67L252.601 420.483L289.308 418.971L320.907 400.639" stroke="white" stroke-width="0.5349" stroke-miterlimit="10"/>
</g>
<g opacity="0.7">
<path opacity="0.7" d="M209.838 407.443L249.952 430.5L292.903 428.799L347.965 397.048" stroke="white" stroke-width="0.5349" stroke-miterlimit="10"/>
</g>
<path opacity="0.7" d="M323.367 401.773C322.232 402.529 320.34 402.529 319.204 401.773C318.069 401.017 318.069 400.072 319.204 399.316C320.34 398.56 322.232 398.56 323.367 399.316C324.502 400.072 324.502 401.017 323.367 401.773Z" fill="white"/>
<path opacity="0.7" d="M350.235 398.182C349.1 398.938 347.208 398.938 346.073 398.182C344.937 397.426 344.937 396.481 346.073 395.725C347.208 394.969 349.1 394.969 350.235 395.725C351.371 396.481 351.371 397.426 350.235 398.182Z" fill="white"/>
<path opacity="0.7" d="M295.174 429.933C294.039 430.689 292.146 430.689 291.011 429.933C289.876 429.177 289.876 428.232 291.011 427.476C292.146 426.72 294.039 426.72 295.174 427.476C296.309 428.232 296.309 429.366 295.174 429.933Z" fill="white"/>
<path opacity="0.7" d="M291.39 420.105C290.254 420.861 288.362 420.861 287.227 420.105C286.092 419.349 286.092 418.404 287.227 417.648C288.362 416.892 290.254 416.892 291.39 417.648C292.525 418.404 292.525 419.538 291.39 420.105Z" fill="white"/>
<path opacity="0.7" d="M213.434 397.993C212.298 398.749 210.406 398.749 209.271 397.993C208.136 397.237 208.136 396.292 209.271 395.536C210.406 394.78 212.298 394.78 213.434 395.536C214.569 396.292 214.569 397.426 213.434 397.993Z" fill="white"/>
<path opacity="0.7" d="M211.92 408.577C210.784 409.333 208.892 409.333 207.757 408.577C206.622 407.821 206.622 406.876 207.757 406.12C208.892 405.364 210.784 405.364 211.92 406.12C213.055 406.876 213.055 408.01 211.92 408.577Z" fill="white"/>
<path opacity="0.7" d="M110.312 432.578C109.177 433.334 107.284 433.334 106.149 432.578C105.014 431.823 105.014 430.878 106.149 430.122C107.284 429.366 109.177 429.366 110.312 430.122C111.636 430.878 111.636 432.012 110.312 432.578Z" fill="white"/>
</g>
<g opacity="0.7">
<g opacity="0.7">
<path opacity="0.7" d="M331.314 418.643L291.2 441.889L248.249 439.999L193.188 408.437" stroke="white" stroke-width="0.5349" stroke-miterlimit="10"/>
</g>
<path opacity="0.7" d="M190.917 409.382C192.052 410.138 193.944 410.138 195.08 409.382C196.215 408.626 196.215 407.681 195.08 406.925C193.944 406.169 192.052 406.169 190.917 406.925C189.782 407.681 189.782 408.815 190.917 409.382Z" fill="white"/>
<path opacity="0.7" d="M245.978 441.133C247.114 441.889 249.006 441.889 250.141 441.133C251.276 440.377 251.276 439.432 250.141 438.676C249.006 437.92 247.114 437.92 245.978 438.676C244.843 439.432 244.843 440.566 245.978 441.133Z" fill="white"/>
<path opacity="0.7" d="M329.232 419.966C330.368 420.722 332.26 420.722 333.395 419.966C334.53 419.21 334.53 418.265 333.395 417.509C332.26 416.753 330.368 416.753 329.232 417.509C328.097 418.076 328.097 419.21 329.232 419.966Z" fill="white"/>
</g>
<g opacity="0.7">
<g opacity="0.7">
<path opacity="0.7" d="M249.952 401.206L199.053 371.723L146.83 366.432L105.581 390.245L69.0631 388.733L37.2751 370.401" stroke="white" stroke-width="0.5349" stroke-miterlimit="10"/>
</g>
<g opacity="0.7">
<path opacity="0.7" d="M148.533 377.204L108.42 400.261L65.4681 398.56L10.4067 366.81" stroke="white" stroke-width="0.5349" stroke-miterlimit="10"/>
</g>
<path opacity="0.7" d="M34.8153 371.534C35.9506 372.29 37.8428 372.29 38.978 371.534C40.1133 370.778 40.1133 369.834 38.978 369.078C37.8428 368.322 35.9506 368.322 34.8153 369.078C33.68 369.645 33.68 370.778 34.8153 371.534Z" fill="white"/>
<path opacity="0.7" d="M7.94692 367.944C9.08221 368.7 10.9744 368.7 12.1096 367.944C13.2449 367.188 13.2449 366.243 12.1096 365.487C10.9744 364.731 9.08221 364.731 7.94692 365.487C6.81164 366.243 6.81164 367.188 7.94692 367.944Z" fill="white"/>
<path opacity="0.7" d="M63.1974 399.694C64.3327 400.45 66.2248 400.45 67.3601 399.694C68.4954 398.938 68.4954 397.993 67.3601 397.237C66.2248 396.481 64.3327 396.481 63.1974 397.237C62.0621 397.993 62.0621 398.938 63.1974 399.694Z" fill="white"/>
<path opacity="0.7" d="M66.9818 389.867C68.1171 390.623 70.0093 390.623 71.1445 389.867C72.2798 389.111 72.2798 388.166 71.1445 387.41C70.0093 386.654 68.1171 386.654 66.9818 387.41C65.8465 388.166 65.8465 389.3 66.9818 389.867Z" fill="white"/>
<path opacity="0.7" d="M144.938 367.755C146.073 368.511 147.965 368.511 149.101 367.755C150.236 366.999 150.236 366.054 149.101 365.298C147.965 364.542 146.073 364.542 144.938 365.298C143.803 366.054 143.803 367.188 144.938 367.755Z" fill="white"/>
<path opacity="0.7" d="M146.452 378.338C147.587 379.094 149.479 379.094 150.614 378.338C151.75 377.582 151.75 376.637 150.614 375.881C149.479 375.125 147.587 375.125 146.452 375.881C145.127 376.637 145.127 377.771 146.452 378.338Z" fill="white"/>
<path opacity="0.7" d="M247.871 402.34C249.006 403.096 250.898 403.096 252.033 402.34C253.169 401.584 253.169 400.639 252.033 399.883C250.898 399.127 249.006 399.127 247.871 399.883C246.735 400.639 246.735 401.584 247.871 402.34Z" fill="white"/>
</g>
</g>
</g>
<g opacity="0.7">
<g opacity="0.7">
<g opacity="0.7">
<g opacity="0.7">
<path opacity="0.7" d="M509.365 278.929L469.441 302.175L426.489 300.474L371.428 268.723" stroke="white" stroke-width="0.5349" stroke-miterlimit="10"/>
</g>
<path opacity="0.7" d="M395.836 273.259C396.971 274.015 398.863 274.015 399.999 273.259C401.134 272.503 401.134 271.558 399.999 270.802C398.863 270.046 396.971 270.046 395.836 270.802C394.701 271.558 394.701 272.692 395.836 273.259Z" fill="white"/>
<path opacity="0.7" d="M368.968 269.668C370.103 270.424 371.995 270.424 373.13 269.668C374.266 268.912 374.266 267.967 373.13 267.212C371.995 266.456 370.103 266.456 368.968 267.212C367.832 267.967 367.832 269.101 368.968 269.668Z" fill="white"/>
<path opacity="0.7" d="M424.218 301.419C425.353 302.175 427.246 302.175 428.381 301.419C429.516 300.663 429.516 299.718 428.381 298.962C427.246 298.206 425.353 298.206 424.218 298.962C423.083 299.718 423.083 300.852 424.218 301.419Z" fill="white"/>
<path opacity="0.7" d="M428.002 291.78C429.138 292.536 431.03 292.536 432.165 291.78C433.3 291.024 433.3 290.079 432.165 289.323C431.03 288.567 429.138 288.567 428.002 289.323C426.867 290.079 426.867 291.024 428.002 291.78Z" fill="white"/>
<path opacity="0.7" d="M507.283 280.252C508.418 281.008 510.311 281.008 511.446 280.252C512.581 279.496 512.581 278.551 511.446 277.795C510.311 277.039 508.418 277.039 507.283 277.795C506.148 278.362 506.148 279.496 507.283 280.252Z" fill="white"/>
</g>
<g opacity="0.7">
<g opacity="0.7">
<path opacity="0.7" d="M362.156 347.344L413.055 318.05L465.278 312.569L506.527 336.382" stroke="white" stroke-width="0.5349" stroke-miterlimit="10"/>
</g>
<g opacity="0.7">
<path opacity="0.7" d="M463.575 323.342L503.688 346.588" stroke="white" stroke-width="0.5349" stroke-miterlimit="10"/>
</g>
<path opacity="0.7" d="M467.17 314.081C466.035 314.837 464.143 314.837 463.007 314.081C461.872 313.325 461.872 312.38 463.007 311.624C464.143 310.868 466.035 310.868 467.17 311.624C468.305 312.191 468.305 313.325 467.17 314.081Z" fill="white"/>
<path opacity="0.7" d="M465.656 324.665C464.521 325.421 462.629 325.421 461.494 324.665C460.358 323.909 460.358 322.964 461.494 322.208C462.629 321.452 464.521 321.452 465.656 322.208C466.792 322.964 466.792 323.909 465.656 324.665Z" fill="white"/>
<path opacity="0.7" d="M364.237 348.667C363.102 349.423 361.21 349.423 360.075 348.667C358.939 347.911 358.939 346.966 360.075 346.21C361.21 345.454 363.102 345.454 364.237 346.21C365.373 346.966 365.373 347.911 364.237 348.667Z" fill="white"/>
</g>
<g opacity="0.7">
<g opacity="0.7">
<path opacity="0.7" d="M368.022 376.637L418.921 347.344L471.144 341.863L512.392 365.676" stroke="white" stroke-width="0.5349" stroke-miterlimit="10"/>
</g>
<g opacity="0.7">
<path opacity="0.7" d="M469.63 352.635L509.743 375.881" stroke="white" stroke-width="0.5349" stroke-miterlimit="10"/>
</g>
<path opacity="0.7" d="M473.036 343.186C471.9 343.942 470.008 343.942 468.873 343.186C467.738 342.43 467.738 341.485 468.873 340.729C470.008 339.973 471.9 339.973 473.036 340.729C474.171 341.485 474.171 342.619 473.036 343.186Z" fill="white"/>
<path opacity="0.7" d="M471.711 353.958C470.576 354.714 468.684 354.714 467.548 353.958C466.413 353.202 466.413 352.257 467.548 351.501C468.684 350.745 470.576 350.745 471.711 351.501C472.846 352.068 472.846 353.202 471.711 353.958Z" fill="white"/>
<path opacity="0.7" d="M370.103 377.771C368.968 378.527 367.076 378.527 365.94 377.771C364.805 377.015 364.805 376.07 365.94 375.314C367.076 374.558 368.968 374.558 370.103 375.314C371.238 376.07 371.238 377.204 370.103 377.771Z" fill="white"/>
</g>
</g>
</g>
<g opacity="0.7">
<g opacity="0.7">
<g opacity="0.7">
<g opacity="0.7">
<path opacity="0.7" d="M101.23 208.246L152.129 237.729L204.163 243.021L245.6 219.208L282.119 220.72L313.907 239.052" stroke="white" stroke-width="0.5349" stroke-miterlimit="10"/>
</g>
<g opacity="0.7">
<path opacity="0.7" d="M202.649 232.248L242.762 209.191L285.714 210.892L340.775 242.643" stroke="white" stroke-width="0.5349" stroke-miterlimit="10"/>
</g>
<path opacity="0.7" d="M316.177 237.918C315.042 237.162 313.15 237.162 312.015 237.918C310.879 238.674 310.879 239.619 312.015 240.375C313.15 241.131 315.042 241.131 316.177 240.375C317.313 239.619 317.313 238.674 316.177 237.918Z" fill="white"/>
<path opacity="0.7" d="M343.045 241.509C341.91 240.753 340.018 240.753 338.883 241.509C337.747 242.265 337.747 243.21 338.883 243.966C340.018 244.722 341.91 244.722 343.045 243.966C344.37 243.21 344.37 242.265 343.045 241.509Z" fill="white"/>
<path opacity="0.7" d="M287.984 209.758C286.849 209.002 284.957 209.002 283.822 209.758C282.686 210.514 282.686 211.459 283.822 212.215C284.957 212.971 286.849 212.971 287.984 212.215C289.12 211.459 289.12 210.325 287.984 209.758Z" fill="white"/>
<path opacity="0.7" d="M284.2 219.397C283.065 218.641 281.173 218.641 280.038 219.397C278.902 220.153 278.902 221.098 280.038 221.854C281.173 222.61 283.065 222.61 284.2 221.854C285.336 221.287 285.336 220.153 284.2 219.397Z" fill="white"/>
<path opacity="0.7" d="M206.244 241.698C205.108 240.942 203.216 240.942 202.081 241.698C200.946 242.454 200.946 243.399 202.081 244.155C203.216 244.911 205.108 244.911 206.244 244.155C207.379 243.399 207.379 242.265 206.244 241.698Z" fill="white"/>
<path opacity="0.7" d="M204.73 231.114C203.595 230.358 201.703 230.358 200.568 231.114C199.432 231.87 199.432 232.815 200.568 233.571C201.703 234.327 203.595 234.327 204.73 233.571C205.866 232.815 205.866 231.681 204.73 231.114Z" fill="white"/>
<path opacity="0.7" d="M103.311 207.112C102.176 206.356 100.284 206.356 99.1486 207.112C98.0133 207.868 98.0133 208.813 99.1486 209.569C100.284 210.325 102.176 210.325 103.311 209.569C104.447 208.813 104.447 207.679 103.311 207.112Z" fill="white"/>
</g>
<g opacity="0.7">
<g opacity="0.7">
<path opacity="0.7" d="M425.732 167.046L374.834 196.34L322.61 201.821L281.362 178.008L244.654 179.52L213.055 197.663" stroke="white" stroke-width="0.5349" stroke-miterlimit="10"/>
</g>
<g opacity="0.7">
<path opacity="0.7" d="M324.124 191.048L284.011 167.802L241.059 169.503L186.187 201.254" stroke="white" stroke-width="0.5349" stroke-miterlimit="10"/>
</g>
<path opacity="0.7" d="M210.596 196.718C211.731 195.962 213.623 195.962 214.758 196.718C215.894 197.474 215.894 198.419 214.758 199.175C213.623 199.931 211.731 199.931 210.596 199.175C209.46 198.419 209.46 197.285 210.596 196.718Z" fill="white"/>
<path opacity="0.7" d="M183.727 200.309C184.862 199.553 186.755 199.553 187.89 200.309C189.025 201.065 189.025 202.01 187.89 202.766C186.755 203.522 184.862 203.522 183.727 202.766C182.592 202.01 182.592 200.876 183.727 200.309Z" fill="white"/>
<path opacity="0.7" d="M238.788 168.558C239.924 167.802 241.816 167.802 242.951 168.558C244.086 169.314 244.086 170.259 242.951 171.015C241.816 171.771 239.924 171.771 238.788 171.015C237.653 170.259 237.653 169.125 238.788 168.558Z" fill="white"/>
<path opacity="0.7" d="M242.573 178.197C243.708 177.441 245.6 177.441 246.735 178.197C247.871 178.953 247.871 179.898 246.735 180.654C245.6 181.41 243.708 181.41 242.573 180.654C241.437 179.898 241.437 178.953 242.573 178.197Z" fill="white"/>
<path opacity="0.7" d="M320.718 200.498C321.853 199.742 323.746 199.742 324.881 200.498C326.016 201.254 326.016 202.199 324.881 202.955C323.746 203.711 321.853 203.711 320.718 202.955C319.583 202.199 319.583 201.065 320.718 200.498Z" fill="white"/>
<path opacity="0.7" d="M322.043 189.725C323.178 188.969 325.07 188.969 326.206 189.725C327.341 190.481 327.341 191.426 326.206 192.182C325.07 192.938 323.178 192.938 322.043 192.182C320.908 191.615 320.908 190.481 322.043 189.725Z" fill="white"/>
<path opacity="0.7" d="M423.651 165.912C424.786 165.156 426.678 165.156 427.813 165.912C428.949 166.668 428.949 167.613 427.813 168.369C426.678 169.125 424.786 169.125 423.651 168.369C422.515 167.613 422.515 166.479 423.651 165.912Z" fill="white"/>
</g>
<g opacity="0.7">
<g opacity="0.7">
<path opacity="0.7" d="M242.762 238.485L191.863 267.967L139.829 273.259L98.3915 249.446L61.8732 250.958L30.0852 269.29" stroke="white" stroke-width="0.5349" stroke-miterlimit="10"/>
</g>
<g opacity="0.7">
<path opacity="0.7" d="M141.343 262.487L101.23 239.43L58.2781 241.131L3.2168 272.881" stroke="white" stroke-width="0.5349" stroke-miterlimit="10"/>
</g>
<path opacity="0.7" d="M27.8146 268.156C28.9499 267.401 30.842 267.401 31.9773 268.156C33.1126 268.912 33.1126 269.857 31.9773 270.613C30.842 271.369 28.9499 271.369 27.8146 270.613C26.6793 269.857 26.6793 268.912 27.8146 268.156Z" fill="white"/>
<path opacity="0.7" d="M0.946255 271.747C2.08154 271.18 3.78447 271.18 5.10897 271.747C6.24425 272.503 6.24425 273.448 5.10897 274.204C3.97368 274.96 2.08154 274.96 0.946255 274.204C-0.378244 273.448 -0.378244 272.503 0.946255 271.747Z" fill="white"/>
<path opacity="0.7" d="M58.089 242.832C59.761 242.832 61.1164 242.07 61.1164 241.131C61.1164 240.191 59.761 239.43 58.089 239.43C56.417 239.43 55.0615 240.191 55.0615 241.131C55.0615 242.07 56.417 242.832 58.089 242.832Z" fill="white"/>
<path opacity="0.7" d="M59.7919 249.824C60.9272 249.068 62.8193 249.068 63.9546 249.824C65.0899 250.58 65.0899 251.525 63.9546 252.281C62.8193 253.037 60.9272 253.037 59.7919 252.281C58.6566 251.525 58.6566 250.391 59.7919 249.824Z" fill="white"/>
<path opacity="0.7" d="M137.748 271.936C138.883 271.18 140.776 271.18 141.911 271.936C143.046 272.692 143.046 273.637 141.911 274.393C140.776 275.149 138.883 275.149 137.748 274.393C136.613 273.637 136.613 272.503 137.748 271.936Z" fill="white"/>
<path opacity="0.7" d="M139.262 261.353C140.397 260.597 142.289 260.597 143.425 261.353C144.56 262.109 144.56 263.054 143.425 263.81C142.289 264.566 140.397 264.566 139.262 263.81C138.127 263.054 138.127 261.92 139.262 261.353Z" fill="white"/>
<path opacity="0.7" d="M240.681 237.351C241.816 236.595 243.708 236.595 244.843 237.351C245.979 238.107 245.979 239.052 244.843 239.808C243.708 240.564 241.816 240.564 240.681 239.808C239.545 239.052 239.545 238.107 240.681 237.351Z" fill="white"/>
</g>
</g>
</g>
</g>
<path d="M295.322 120.669C295.322 128.495 293.063 134.582 289.067 138.061C287.85 139.104 280.378 144.322 278.988 145.018C273.775 147.105 273.254 141.887 265.956 137.713C249.622 128.321 236.415 105.364 236.415 86.5805C236.415 79.4498 231.724 78.4063 235.025 74.754C235.894 73.8844 243.54 68.4928 244.582 67.7972C249.969 64.3188 257.615 64.6666 266.13 69.5364C282.116 78.928 295.322 101.712 295.322 120.669Z" fill="url(#paint0_linear_405_74)"/>
<path d="M288.372 125.365C288.372 144.148 275.166 151.801 258.831 142.409C242.497 133.017 229.291 110.06 229.291 91.2764C229.291 72.493 242.497 64.8405 258.831 74.2322C275.166 83.6239 288.372 106.581 288.372 125.365Z" fill="url(#paint1_linear_405_74)"/>
<path d="M277.279 140.25C287.501 134.343 287.541 115.258 277.369 97.6236C267.196 79.989 250.662 70.4821 240.44 76.3894C230.218 82.2967 230.177 101.381 240.35 119.016C250.523 136.65 267.056 146.157 277.279 140.25Z" stroke="#4D0063" stroke-width="0.6873" stroke-miterlimit="10"/>
<path d="M266.998 99.6245V93.5373L262.133 90.7546V96.3201L257.267 93.5373V87.9719L252.402 85.1892V90.7546L247.536 87.9719V115.625L252.402 118.408V123.973L257.267 126.756V121.191L262.133 123.973V129.539L266.998 132.321V126.234C269.257 126.582 270.995 125.539 271.516 123.104C272.037 120.843 271.516 117.538 269.952 114.582C271.516 113.538 272.211 110.929 271.516 107.973C270.995 105.016 269.257 101.885 266.998 99.6245ZM252.575 96.3201L264.565 103.277C265.955 103.973 266.998 105.886 266.998 107.451C266.998 109.016 265.955 109.538 264.565 108.842L252.575 101.885V96.3201ZM264.565 119.799L252.575 112.842V107.277L264.565 114.234C265.955 114.929 266.998 116.843 266.998 118.408C266.998 119.973 265.955 120.669 264.565 119.799Z" fill="white"/>
<path d="M261.264 395.984L138.584 325.373C133.024 322.242 133.024 305.546 135.283 299.98L250.316 240.326C256.572 236.673 266.303 236.326 271.864 239.456L397.323 303.459C401.841 310.763 399.409 327.981 392.979 331.634L282.985 395.288C276.381 398.767 266.651 399.115 261.264 395.984Z" fill="url(#paint2_linear_405_74)"/>
<path d="M261.264 377.723L138.584 307.111C133.024 303.981 133.719 298.415 140.148 294.763L250.143 231.108C256.398 227.456 266.129 227.108 271.69 230.238L394.369 300.85C399.93 303.981 399.235 309.546 392.805 313.198L282.811 376.853C276.382 380.505 266.651 380.853 261.264 377.723Z" fill="url(#paint3_linear_405_74)"/>
<path d="M261.09 369.548L152.833 307.111C147.272 303.981 147.967 298.415 154.397 294.763L250.49 239.282C256.746 235.63 266.477 235.282 272.037 238.413L380.294 300.85C385.855 303.981 385.16 309.546 378.73 313.198L282.637 368.679C276.208 372.331 266.477 372.679 261.09 369.548Z" fill="url(#paint4_linear_405_74)"/>
<path opacity="0.1" d="M265.434 344.678C311.979 344.678 349.711 326.301 349.711 303.633C349.711 280.964 311.979 262.588 265.434 262.588C218.889 262.588 181.157 280.964 181.157 303.633C181.157 326.301 218.889 344.678 265.434 344.678Z" fill="url(#paint5_radial_405_74)"/>
<path opacity="0.1" d="M317.391 325.547C289.762 339.112 244.756 339.112 217.127 325.547C189.498 311.981 189.498 290.241 217.127 276.675C244.756 263.109 289.762 263.109 317.391 276.675C345.02 290.241 345.02 311.981 317.391 325.547Z" fill="url(#paint6_radial_405_74)"/>
<path d="M206.354 273.718L329.902 274.762V291.98C329.902 301.198 323.82 310.242 311.83 317.198C287.676 331.112 248.579 331.112 224.425 317.198C212.435 310.242 206.354 301.024 206.354 291.98V273.718V273.718Z" fill="url(#paint7_linear_405_74)"/>
<path d="M212.435 271.631H210.35V304.395H212.435V271.631Z" fill="#4D0063"/>
<path d="M219.56 271.631H217.475V309.372H219.56V271.631Z" fill="#4D0063"/>
<path d="M226.51 271.631H224.425V309.372H226.51V271.631Z" fill="#4D0063"/>
<path d="M233.635 271.631H231.55V309.372H233.635V271.631Z" fill="#4D0063"/>
<path d="M240.759 271.631H238.674V309.372H240.759V271.631Z" fill="#4D0063"/>
<path d="M247.884 271.631H245.798V309.372H247.884V271.631Z" fill="#4D0063"/>
<path d="M255.008 271.631H252.923V309.372H255.008V271.631Z" fill="#4D0063"/>
<path d="M262.133 271.631H260.048V309.372H262.133V271.631Z" fill="#4D0063"/>
<path d="M269.257 271.631H267.172V309.372H269.257V271.631Z" fill="#4D0063"/>
<path d="M276.382 271.631H274.296V309.372H276.382V271.631Z" fill="#4D0063"/>
<path d="M283.332 271.631H281.247V309.372H283.332V271.631Z" fill="#4D0063"/>
<path d="M290.456 271.631H288.371V309.372H290.456V271.631Z" fill="#4D0063"/>
<path d="M297.581 271.631H295.496V309.372H297.581V271.631Z" fill="#4D0063"/>
<path d="M304.705 271.631H302.62V309.372H304.705V271.631Z" fill="#4D0063"/>
<path d="M311.83 271.631H309.745V309.372H311.83V271.631Z" fill="#4D0063"/>
<path d="M318.954 271.631H316.869V309.372H318.954V271.631Z" fill="#4D0063"/>
<path d="M326.079 271.631H323.994V303.622H326.079V271.631Z" fill="#4D0063"/>
<path d="M268.215 311.111C302.38 311.111 330.076 295.149 330.076 275.458C330.076 255.767 302.38 239.804 268.215 239.804C234.05 239.804 206.354 255.767 206.354 275.458C206.354 295.149 234.05 311.111 268.215 311.111Z" fill="url(#paint8_linear_405_74)"/>
<path d="M268.214 304.85C298.061 304.85 322.256 290.912 322.256 273.718C322.256 256.525 298.061 242.587 268.214 242.587C238.368 242.587 214.173 256.525 214.173 273.718C214.173 290.912 238.368 304.85 268.214 304.85Z" stroke="#4D0063" stroke-width="1.1865" stroke-miterlimit="10"/>
<path d="M261.611 254.413L253.792 249.891L246.667 254.065L253.792 258.24L246.667 262.414L239.543 258.24L232.418 262.414L239.543 266.588L232.418 270.762L268.214 291.458L275.339 287.284L282.463 291.458L289.588 287.284L282.463 283.11L289.588 278.936L296.712 283.11L303.837 278.936L296.017 274.414C298.276 271.805 297.929 268.675 295.496 266.24C292.889 263.805 288.371 262.066 283.332 262.066C283.158 259.109 280.378 256.5 276.034 254.935C271.516 253.196 266.129 253.022 261.611 254.413ZM246.667 270.588L264.565 260.327C266.477 259.109 269.778 259.109 271.69 260.327C273.601 261.544 273.601 263.283 271.69 264.501L253.792 274.762L246.667 270.588ZM285.939 272.675L268.041 282.936L260.916 278.762L278.814 268.501C280.726 267.283 284.027 267.283 285.939 268.501C288.024 269.544 288.024 271.457 285.939 272.675Z" fill="white"/>
<path d="M206.354 253.544L329.902 254.587V271.805C329.902 281.023 323.82 290.067 311.83 297.024C287.676 310.937 248.579 310.937 224.425 297.024C212.435 290.067 206.354 280.849 206.354 271.805V253.544V253.544Z" fill="url(#paint9_linear_405_74)"/>
<path d="M212.435 251.283H210.35V304.395H212.435V251.283Z" fill="#4D0063"/>
<path d="M219.56 251.283H217.475V312.347H219.56V251.283Z" fill="#4D0063"/>
<path d="M226.51 251.283H224.425V317.192H226.51V251.283Z" fill="#4D0063"/>
<path d="M233.635 251.283H231.55V320.803H233.635V251.283Z" fill="#4D0063"/>
<path d="M240.759 251.283H238.674V323.314H240.759V251.283Z" fill="#4D0063"/>
<path d="M247.884 251.283H245.798V325.208H247.884V251.283Z" fill="#4D0063"/>
<path d="M255.008 251.283H252.923V326.485H255.008V251.283Z" fill="#4D0063"/>
<path d="M262.133 251.283H260.048V327.634H262.133V251.283Z" fill="#4D0063"/>
<path d="M269.257 251.283H267.172V327.634H269.257V251.283Z" fill="#4D0063"/>
<path d="M276.382 251.283H274.296V327.634H276.382V251.283Z" fill="#4D0063"/>
<path d="M283.332 251.283H281.247V326.418H283.332V251.283Z" fill="#4D0063"/>
<path d="M290.456 251.283H288.371V325.225H290.456V251.283Z" fill="#4D0063"/>
<path d="M297.581 251.283H295.496V323.288H297.581V251.283Z" fill="#4D0063"/>
<path d="M304.705 251.283H302.62V320.904H304.705V251.283Z" fill="#4D0063"/>
<path d="M311.83 251.283H309.745V317.278H311.83V251.283Z" fill="#4D0063"/>
<path d="M318.954 251.283H316.869V312.509H318.954V251.283Z" fill="#4D0063"/>
<path d="M326.079 251.283H323.994V304.463H326.079V251.283Z" fill="#4D0063"/>
<path d="M268.215 290.763C302.38 290.763 330.076 274.8 330.076 255.109C330.076 235.418 302.38 219.455 268.215 219.455C234.05 219.455 206.354 235.418 206.354 255.109C206.354 274.8 234.05 290.763 268.215 290.763Z" fill="url(#paint10_linear_405_74)"/>
<path d="M268.214 284.675C298.061 284.675 322.256 270.737 322.256 253.544C322.256 236.35 298.061 222.412 268.214 222.412C238.368 222.412 214.173 236.35 214.173 253.544C214.173 270.737 238.368 284.675 268.214 284.675Z" stroke="#4D0063" stroke-width="1.1865" stroke-miterlimit="10"/>
<path d="M261.611 234.065L253.792 229.543L246.667 233.717L253.792 237.891L246.667 242.065L239.543 237.891L232.418 242.065L239.543 246.239L232.418 250.413L268.214 271.11L275.339 266.936L282.463 271.11L289.588 266.936L282.463 262.761L289.588 258.587L296.712 262.761L303.837 258.587L296.017 254.065C298.276 251.457 297.929 248.326 295.496 245.891C292.889 243.456 288.371 241.717 283.332 241.717C283.158 238.76 280.378 236.152 276.034 234.586C271.516 233.021 266.129 232.847 261.611 234.065ZM246.667 250.239L264.565 239.978C266.477 238.76 269.778 238.76 271.69 239.978C273.601 241.195 273.601 242.935 271.69 244.152L253.792 254.413L246.667 250.239ZM285.939 252.326L268.041 262.588L260.916 258.413L278.814 248.152C280.726 246.935 284.027 246.935 285.939 248.152C288.024 249.37 288.024 251.109 285.939 252.326Z" fill="white"/>
<path d="M206.354 233.195L329.902 234.239V251.457C329.902 260.674 323.82 269.718 311.83 276.675C287.676 290.589 248.579 290.589 224.425 276.675C212.435 269.718 206.354 260.5 206.354 251.457V233.195V233.195Z" fill="url(#paint11_linear_405_74)"/>
<path d="M212.435 230.934H210.35V289.023H212.435V230.934Z" fill="#4D0063"/>
<path d="M219.56 230.934H217.475V289.023H219.56V230.934Z" fill="#4D0063"/>
<path d="M226.51 230.934H224.425V289.023H226.51V230.934Z" fill="#4D0063"/>
<path d="M233.635 230.934H231.55V289.023H233.635V230.934Z" fill="#4D0063"/>
<path d="M240.759 230.934H238.674V289.023H240.759V230.934Z" fill="#4D0063"/>
<path d="M247.884 230.934H245.798V289.023H247.884V230.934Z" fill="#4D0063"/>
<path d="M255.008 230.934H252.923V289.023H255.008V230.934Z" fill="#4D0063"/>
<path d="M262.133 230.934H260.048V289.023H262.133V230.934Z" fill="#4D0063"/>
<path d="M269.257 230.934H267.172V289.023H269.257V230.934Z" fill="#4D0063"/>
<path d="M276.382 230.934H274.296V289.023H276.382V230.934Z" fill="#4D0063"/>
<path d="M283.332 230.934H281.247V289.023H283.332V230.934Z" fill="#4D0063"/>
<path d="M290.456 230.934H288.371V289.023H290.456V230.934Z" fill="#4D0063"/>
<path d="M297.581 230.934H295.496V289.023H297.581V230.934Z" fill="#4D0063"/>
<path d="M304.705 230.934H302.62V289.023H304.705V230.934Z" fill="#4D0063"/>
<path d="M311.83 230.934H309.745V289.023H311.83V230.934Z" fill="#4D0063"/>
<path d="M318.954 230.934H316.869V289.023H318.954V230.934Z" fill="#4D0063"/>
<path d="M326.079 230.934H323.994V289.023H326.079V230.934Z" fill="#4D0063"/>
<path d="M268.215 270.414C302.38 270.414 330.076 254.451 330.076 234.76C330.076 215.069 302.38 199.107 268.215 199.107C234.05 199.107 206.354 215.069 206.354 234.76C206.354 254.451 234.05 270.414 268.215 270.414Z" fill="url(#paint12_linear_405_74)"/>
<path d="M306.269 255.283C285.244 267.457 251.011 267.457 229.986 255.283C208.96 243.109 208.96 223.282 229.986 211.107C251.011 198.933 285.244 198.933 306.269 211.107C327.469 223.282 327.469 243.109 306.269 255.283Z" stroke="#4D0063" stroke-width="1.1865" stroke-miterlimit="10"/>
<path d="M261.611 213.89L253.792 209.368L246.667 213.542L253.792 217.716L246.667 221.89L239.543 217.716L232.418 221.89L239.543 226.064L232.418 230.238L268.214 250.935L275.339 246.761L282.463 250.935L289.588 246.761L282.463 242.587L289.588 238.413L296.712 242.587L303.837 238.413L296.017 233.891C298.276 231.282 297.929 228.151 295.496 225.717C292.889 223.282 288.371 221.542 283.332 221.542C283.158 218.586 280.378 215.977 276.034 214.412C271.516 212.673 266.129 212.499 261.611 213.89ZM246.667 229.891L264.565 219.629C266.477 218.412 269.778 218.412 271.69 219.629C273.601 220.847 273.601 222.586 271.69 223.803L253.792 234.065L246.667 229.891ZM285.939 231.978L268.041 242.239L260.916 238.065L278.814 227.804C280.726 226.586 284.027 226.586 285.939 227.804C288.024 229.021 288.024 230.934 285.939 231.978Z" fill="white"/>
<path d="M206.354 212.846L329.902 213.89V231.108C329.902 240.326 323.82 249.37 311.83 256.326C287.676 270.24 248.579 270.24 224.425 256.326C212.435 249.37 206.354 240.152 206.354 231.108V212.846V212.846Z" fill="url(#paint13_linear_405_74)"/>
<path d="M212.435 210.759H210.35V268.849H212.435V210.759Z" fill="#4D0063"/>
<path d="M219.56 210.759H217.475V268.849H219.56V210.759Z" fill="#4D0063"/>
<path d="M226.51 210.759H224.425V268.849H226.51V210.759Z" fill="#4D0063"/>
<path d="M233.635 210.759H231.55V268.849H233.635V210.759Z" fill="#4D0063"/>
<path d="M240.759 210.759H238.674V268.849H240.759V210.759Z" fill="#4D0063"/>
<path d="M247.884 210.759H245.798V268.849H247.884V210.759Z" fill="#4D0063"/>
<path d="M255.008 210.759H252.923V268.849H255.008V210.759Z" fill="#4D0063"/>
<path d="M262.133 210.759H260.048V268.849H262.133V210.759Z" fill="#4D0063"/>
<path d="M269.257 210.759H267.172V268.849H269.257V210.759Z" fill="#4D0063"/>
<path d="M276.382 210.759H274.296V268.849H276.382V210.759Z" fill="#4D0063"/>
<path d="M283.332 210.759H281.247V268.849H283.332V210.759Z" fill="#4D0063"/>
<path d="M290.456 210.759H288.371V268.849H290.456V210.759Z" fill="#4D0063"/>
<path d="M297.581 210.759H295.496V268.849H297.581V210.759Z" fill="#4D0063"/>
<path d="M304.705 210.759H302.62V268.849H304.705V210.759Z" fill="#4D0063"/>
<path d="M311.83 210.759H309.745V268.849H311.83V210.759Z" fill="#4D0063"/>
<path d="M318.954 210.759H316.869V268.849H318.954V210.759Z" fill="#4D0063"/>
<path d="M326.079 210.759H323.994V268.849H326.079V210.759Z" fill="#4D0063"/>
<path d="M311.83 239.804C287.676 253.718 248.579 253.718 224.425 239.804C200.272 225.89 200.272 203.281 224.425 189.367C248.579 175.454 287.676 175.454 311.83 189.367C335.984 203.281 335.984 225.89 311.83 239.804Z" fill="url(#paint14_linear_405_74)"/>
<path d="M268.214 243.978C298.061 243.978 322.256 230.04 322.256 212.846C322.256 195.653 298.061 181.715 268.214 181.715C238.368 181.715 214.173 195.653 214.173 212.846C214.173 230.04 238.368 243.978 268.214 243.978Z" stroke="#4D0063" stroke-width="1.1865" stroke-miterlimit="10"/>
<path d="M261.611 193.541L253.792 189.019L246.667 193.193L253.792 197.368L246.667 201.542L239.543 197.368L232.418 201.542L239.543 205.716L232.418 209.89L268.214 230.586L275.339 226.412L282.463 230.586L289.588 226.412L282.463 222.238L289.588 218.064L296.712 222.238L303.837 218.064L296.017 213.542C298.276 210.933 297.929 207.803 295.496 205.368C292.889 202.933 288.371 201.194 283.332 201.194C283.158 198.237 280.378 195.628 276.034 194.063C271.516 192.324 266.129 192.324 261.611 193.541ZM246.667 209.716L264.565 199.455C266.477 198.237 269.778 198.237 271.69 199.455C273.601 200.672 273.601 202.411 271.69 203.629L253.792 213.89L246.667 209.716ZM285.939 211.803L268.041 222.064L260.916 217.89L278.814 207.629C280.726 206.411 284.027 206.411 285.939 207.629C288.024 208.672 288.024 210.585 285.939 211.803Z" fill="white"/>
<path d="M206.354 192.672L329.902 193.715V210.933C329.902 220.151 323.82 229.195 311.83 236.152C287.676 250.065 248.579 250.065 224.425 236.152C212.435 229.195 206.354 219.977 206.354 210.933V192.672V192.672Z" fill="url(#paint15_linear_405_74)"/>
<path d="M212.435 190.411H210.35V248.5H212.435V190.411Z" fill="#4D0063"/>
<path d="M219.56 190.411H217.474V248.5H219.56V190.411Z" fill="#4D0063"/>
<path d="M226.51 190.411H224.425V248.5H226.51V190.411Z" fill="#4D0063"/>
<path d="M233.635 190.411H231.55V248.5H233.635V190.411Z" fill="#4D0063"/>
<path d="M240.759 190.411H238.674V248.5H240.759V190.411Z" fill="#4D0063"/>
<path d="M247.884 190.411H245.798V248.5H247.884V190.411Z" fill="#4D0063"/>
<path d="M255.008 190.411H252.923V248.5H255.008V190.411Z" fill="#4D0063"/>
<path d="M262.133 190.411H260.047V248.5H262.133V190.411Z" fill="#4D0063"/>
<path d="M269.257 190.411H267.172V248.5H269.257V190.411Z" fill="#4D0063"/>
<path d="M276.382 190.411H274.296V248.5H276.382V190.411Z" fill="#4D0063"/>
<path d="M283.332 190.411H281.247V248.5H283.332V190.411Z" fill="#4D0063"/>
<path d="M290.456 190.411H288.371V248.5H290.456V190.411Z" fill="#4D0063"/>
<path d="M297.581 190.411H295.496V248.5H297.581V190.411Z" fill="#4D0063"/>
<path d="M304.705 190.411H302.62V248.5H304.705V190.411Z" fill="#4D0063"/>
<path d="M311.83 190.411H309.745V248.5H311.83V190.411Z" fill="#4D0063"/>
<path d="M318.954 190.411H316.869V248.5H318.954V190.411Z" fill="#4D0063"/>
<path d="M326.079 190.411H323.994V248.5H326.079V190.411Z" fill="#4D0063"/>
<path d="M311.83 219.455C287.676 233.369 248.579 233.369 224.425 219.455C200.271 205.542 200.271 182.932 224.425 169.019C248.579 155.105 287.676 155.105 311.83 169.019C335.983 182.932 335.983 205.542 311.83 219.455Z" fill="url(#paint16_linear_405_74)"/>
<path d="M268.214 223.803C298.061 223.803 322.256 209.865 322.256 192.672C322.256 175.478 298.061 161.54 268.214 161.54C238.368 161.54 214.173 175.478 214.173 192.672C214.173 209.865 238.368 223.803 268.214 223.803Z" stroke="#4D0063" stroke-width="1.1865" stroke-miterlimit="10"/>
<path d="M261.611 173.193L253.792 168.671L246.667 172.845L253.792 177.019L246.667 181.193L239.543 177.019L232.418 181.193L239.543 185.367L232.418 189.541L268.214 210.238L275.339 206.064L282.463 210.238L289.588 206.064L282.463 201.889L289.588 197.715L296.712 201.889L303.837 197.715L296.017 193.193C298.276 190.585 297.929 187.454 295.496 185.019C292.889 182.584 288.371 180.845 283.332 180.845C283.158 177.889 280.378 175.28 276.034 173.714C271.516 172.149 266.129 171.975 261.611 173.193ZM246.667 189.367L264.565 179.106C266.477 177.889 269.778 177.889 271.69 179.106C273.601 180.323 273.601 182.063 271.69 183.28L253.792 193.541L246.667 189.367ZM285.939 191.454L268.041 201.716L260.916 197.541L278.814 187.28C280.726 186.063 284.027 186.063 285.939 187.28C288.024 188.498 288.024 190.237 285.939 191.454Z" fill="white"/>
<g opacity="0.5">
<path opacity="0.5" d="M333.899 114.929H333.551C333.377 114.929 333.377 114.756 333.377 114.756V114.408C333.377 114.234 333.551 114.234 333.551 114.234H333.899C334.072 114.234 334.072 114.408 334.072 114.408V114.756C334.072 114.756 334.072 114.929 333.899 114.929Z" fill="white"/>
<path opacity="0.5" d="M330.249 166.41H329.902C329.728 166.41 329.728 166.236 329.728 166.236V165.888C329.728 165.714 329.902 165.714 329.902 165.714H330.249C330.423 165.714 330.423 165.888 330.423 165.888V166.236C330.423 166.236 330.423 166.41 330.249 166.41Z" fill="white"/>
<path opacity="0.5" d="M306.617 155.279H306.269C306.096 155.279 306.096 155.105 306.096 155.105V154.757C306.096 154.583 306.269 154.583 306.269 154.583H306.617C306.791 154.583 306.791 154.757 306.791 154.757V154.931C306.964 155.105 306.791 155.279 306.617 155.279Z" fill="white"/>
<path opacity="0.5" d="M290.805 158.931H290.457C290.283 158.931 290.283 158.757 290.283 158.757V158.409C290.283 158.236 290.457 158.236 290.457 158.236H290.805C290.978 158.236 290.978 158.409 290.978 158.409V158.757C291.152 158.757 290.978 158.931 290.805 158.931Z" fill="white"/>
<path opacity="0.5" d="M282.638 142.583L282.29 142.409C282.116 142.409 282.116 142.235 282.116 142.061L282.29 141.713C282.29 141.539 282.464 141.539 282.638 141.539L282.985 141.713C283.159 141.713 283.159 141.887 283.159 142.061L282.985 142.409C282.985 142.583 282.811 142.583 282.638 142.583Z" fill="white"/>
<path opacity="0.5" d="M270.126 173.714L269.778 173.541C269.604 173.541 269.604 173.367 269.604 173.193L269.778 172.845C269.778 172.671 269.952 172.671 270.126 172.671L270.473 172.845C270.647 172.845 270.647 173.019 270.647 173.193L270.473 173.541C270.473 173.714 270.3 173.714 270.126 173.714Z" fill="white"/>
<path opacity="0.5" d="M251.185 128.843L250.838 128.669C250.664 128.669 250.664 128.495 250.664 128.321L250.838 127.973C250.838 127.8 251.012 127.8 251.185 127.8L251.533 127.973C251.707 127.973 251.707 128.147 251.707 128.321L251.533 128.669C251.359 128.843 251.185 128.843 251.185 128.843Z" fill="white"/>
<path opacity="0.5" d="M219.212 142.931L218.865 142.757C218.691 142.757 218.691 142.583 218.691 142.409L218.865 142.061C218.865 141.887 219.039 141.887 219.212 141.887L219.56 142.061C219.734 142.061 219.734 142.235 219.734 142.409L219.56 142.757C219.386 142.931 219.386 143.105 219.212 142.931Z" fill="white"/>
<path opacity="0.5" d="M234.851 189.715L234.504 189.541C234.33 189.541 234.33 189.367 234.33 189.193L234.504 188.845C234.504 188.672 234.678 188.672 234.851 188.672L235.199 188.845C235.373 188.845 235.373 189.019 235.373 189.193L235.199 189.541C235.025 189.715 235.025 189.889 234.851 189.715Z" fill="white"/>
<path opacity="0.5" d="M240.76 157.888L240.412 157.714C240.238 157.714 240.238 157.54 240.238 157.366L240.412 157.018C240.412 156.844 240.586 156.844 240.76 156.844L241.107 157.018C241.281 157.018 241.281 157.192 241.281 157.366L241.107 157.714C241.107 157.888 240.933 157.888 240.76 157.888Z" fill="white"/>
<path opacity="0.5" d="M219.212 119.277L218.865 119.104C218.691 119.104 218.691 118.93 218.691 118.756L218.865 118.408C218.865 118.234 219.039 118.234 219.212 118.234L219.56 118.408C219.734 118.408 219.734 118.582 219.734 118.756L219.56 119.104C219.386 119.277 219.386 119.277 219.212 119.277Z" fill="white"/>
<path opacity="0.5" d="M193.842 150.409L193.495 150.235C193.321 150.235 193.321 150.061 193.321 149.887L193.495 149.54C193.495 149.366 193.669 149.366 193.842 149.366L194.19 149.54C194.364 149.54 194.364 149.713 194.364 149.887L194.19 150.235C194.19 150.409 194.016 150.409 193.842 150.409Z" fill="white"/>
<path opacity="0.5" d="M193.842 126.756L193.495 126.582C193.321 126.582 193.321 126.408 193.321 126.234L193.495 125.886C193.495 125.713 193.669 125.712 193.842 125.712L194.19 125.886C194.364 125.886 194.364 126.06 194.364 126.234L194.19 126.582C194.19 126.756 194.016 126.756 193.842 126.756Z" fill="white"/>
<path opacity="0.5" d="M349.711 142.583L349.364 142.409C349.19 142.409 349.19 142.235 349.19 142.061L349.364 141.713C349.364 141.539 349.537 141.539 349.711 141.539L350.059 141.713C350.233 141.713 350.233 141.887 350.233 142.061L350.059 142.409C349.885 142.583 349.711 142.583 349.711 142.583Z" fill="white"/>
<path opacity="0.5" d="M351.797 126.756L351.449 126.582C351.275 126.582 351.275 126.408 351.275 126.234L351.449 125.886C351.449 125.713 351.623 125.712 351.797 125.712L352.144 125.886C352.318 125.886 352.318 126.06 352.318 126.234L352.144 126.582C351.97 126.756 351.797 126.756 351.797 126.756Z" fill="white"/>
<path opacity="0.5" d="M320.692 149.192L320.345 149.018C320.171 149.018 320.171 148.844 320.171 148.67L320.345 148.322C320.345 148.148 320.518 148.148 320.692 148.148L321.04 148.322C321.213 148.322 321.213 148.496 321.213 148.67L321.04 149.018C320.866 149.018 320.692 149.192 320.692 149.192Z" fill="white"/>
<path opacity="0.5" d="M307.66 121.538L307.312 121.365C307.139 121.365 307.139 121.191 307.139 121.017L307.312 120.669C307.312 120.495 307.486 120.495 307.66 120.495L308.007 120.669C308.181 120.669 308.181 120.843 308.181 121.017L308.007 121.365C307.834 121.538 307.66 121.538 307.66 121.538Z" fill="white"/>
<path opacity="0.5" d="M273.08 201.889H272.732C272.559 201.889 272.559 201.716 272.559 201.716V201.368C272.559 201.194 272.732 201.194 272.732 201.194H273.08C273.254 201.194 273.254 201.368 273.254 201.368V201.716C273.254 201.889 273.254 201.889 273.08 201.889Z" fill="white"/>
<path opacity="0.5" d="M312.525 176.323L312.178 176.149C312.004 176.149 312.004 175.975 312.004 175.801L312.178 175.454C312.178 175.28 312.351 175.28 312.525 175.28L312.873 175.454C313.047 175.454 313.047 175.628 313.047 175.801L312.873 176.149C312.873 176.323 312.699 176.323 312.525 176.323Z" fill="white"/>
<path opacity="0.5" d="M219.907 163.627L219.56 163.453C219.386 163.453 219.386 163.279 219.386 163.105L219.56 162.757C219.56 162.584 219.734 162.584 219.907 162.584L220.255 162.757C220.429 162.757 220.429 162.931 220.429 163.105L220.255 163.453C220.255 163.627 220.081 163.627 219.907 163.627Z" fill="white"/>
<path opacity="0.5" d="M288.371 192.15L288.024 191.976C287.85 191.976 287.85 191.802 287.85 191.628L288.024 191.28C288.024 191.106 288.198 191.106 288.371 191.106L288.719 191.28C288.893 191.28 288.893 191.454 288.893 191.628L288.719 191.976C288.545 192.15 288.371 192.15 288.371 192.15Z" fill="white"/>
<path opacity="0.5" d="M296.365 132.321L296.018 132.148C295.844 132.148 295.844 131.974 295.844 131.8L296.018 131.452C296.018 131.278 296.191 131.278 296.365 131.278L296.713 131.452C296.886 131.452 296.886 131.626 296.886 131.8L296.713 132.148C296.539 132.321 296.539 132.495 296.365 132.321Z" fill="white"/>
</g>
<g opacity="0.5">
<path opacity="0.5" d="M288.719 29.1869H288.372C288.198 29.1869 288.198 29.013 288.198 29.013V28.6652C288.198 28.4912 288.372 28.4912 288.372 28.4912H288.719C288.893 28.4912 288.893 28.6652 288.893 28.6652V29.013C288.893 29.1869 288.719 29.1869 288.719 29.1869Z" fill="white"/>
<path opacity="0.5" d="M284.896 80.8412H284.549C284.375 80.8412 284.375 80.6672 284.375 80.6672V80.1455C284.375 79.9716 284.549 79.9716 284.549 79.9716H284.896C285.07 79.9716 285.07 80.1455 285.07 80.1455V80.4933C285.244 80.6672 285.07 80.8412 284.896 80.8412Z" fill="white"/>
<path opacity="0.5" d="M263.002 54.9271H262.654C262.48 54.9271 262.48 54.7531 262.48 54.7531V54.4053C262.48 54.2314 262.654 54.2314 262.654 54.2314H263.002C263.176 54.2314 263.176 54.4053 263.176 54.4053V54.7531L263.002 54.9271Z" fill="white"/>
<path opacity="0.5" d="M245.625 73.1887H245.277C245.104 73.1887 245.104 73.0147 245.104 73.0147V72.6669C245.104 72.493 245.277 72.493 245.277 72.493H245.625C245.799 72.493 245.799 72.6669 245.799 72.6669V73.0147C245.799 73.1887 245.625 73.1887 245.625 73.1887Z" fill="white"/>
<path opacity="0.5" d="M231.028 41.0135L230.681 40.8396C230.507 40.8396 230.507 40.6657 230.507 40.4917L230.681 40.1439C230.681 39.97 230.854 39.97 231.028 39.97L231.376 40.1439C231.549 40.1439 231.549 40.3178 231.549 40.4917L231.376 40.8396C231.202 41.0135 231.202 41.1874 231.028 41.0135Z" fill="white"/>
<path opacity="0.5" d="M224.947 88.1458L224.599 87.9719C224.425 87.9719 224.425 87.798 224.425 87.6241L224.599 87.2762C224.599 87.1023 224.773 87.1023 224.947 87.1023L225.294 87.2762C225.468 87.2762 225.468 87.4501 225.468 87.6241L225.294 87.9719C225.12 88.1458 225.12 88.1458 224.947 88.1458Z" fill="white"/>
<path opacity="0.5" d="M205.832 43.2744L205.485 43.1005C205.311 43.1005 205.311 42.9266 205.311 42.7527L205.485 42.4048C205.485 42.2309 205.658 42.2309 205.832 42.2309L206.18 42.4048C206.353 42.4048 206.353 42.5787 206.353 42.7527L206.18 43.1005C206.006 43.2744 206.006 43.2744 205.832 43.2744Z" fill="white"/>
<path opacity="0.5" d="M189.672 104.146L189.324 103.973C189.151 103.973 189.151 103.799 189.151 103.625L189.324 103.277C189.324 103.103 189.498 103.103 189.672 103.103L190.019 103.277C190.193 103.277 190.193 103.451 190.193 103.625L190.019 103.973C189.846 104.146 189.672 104.146 189.672 104.146Z" fill="white"/>
<path opacity="0.5" d="M195.58 72.1451L195.232 71.9712C195.059 71.9712 195.059 71.7973 195.059 71.6234L195.232 71.2755C195.232 71.1016 195.406 71.1016 195.58 71.1016L195.927 71.2755C196.101 71.2755 196.101 71.4495 196.101 71.6234L195.927 71.9712C195.754 72.1451 195.754 72.3191 195.58 72.1451Z" fill="white"/>
<path opacity="0.5" d="M304.358 56.8402L304.011 56.6663C303.837 56.6663 303.837 56.4924 303.837 56.3185L304.011 55.9706C304.011 55.7967 304.184 55.7967 304.358 55.7967L304.706 55.9706C304.88 55.9706 304.879 56.1445 304.879 56.3185L304.706 56.6663C304.706 56.8402 304.532 57.0141 304.358 56.8402Z" fill="white"/>
<path opacity="0.5" d="M318.607 88.6675L318.26 88.4936C318.086 88.4936 318.086 88.3197 318.086 88.1458L318.26 87.7979C318.26 87.624 318.433 87.624 318.607 87.624L318.955 87.7979C319.129 87.7979 319.129 87.9719 319.129 88.1458L318.955 88.4936C318.781 88.6675 318.607 88.8415 318.607 88.6675Z" fill="white"/>
<path opacity="0.5" d="M351.796 85.7109L351.449 85.537C351.275 85.537 351.275 85.3631 351.275 85.1892L351.449 84.8413C351.449 84.6674 351.622 84.6674 351.796 84.6674L352.144 84.8413C352.317 84.8413 352.317 85.0153 352.317 85.1892L352.144 85.537C352.144 85.7109 351.97 85.8849 351.796 85.7109Z" fill="white"/>
<path opacity="0.5" d="M373.865 75.9714L373.517 75.7975C373.344 75.7975 373.344 75.6236 373.344 75.4496L373.517 75.1018C373.517 74.9279 373.691 74.9279 373.865 74.9279L374.213 75.1018C374.386 75.1018 374.386 75.2757 374.386 75.4496L374.213 75.7975C374.039 75.9714 373.865 75.9714 373.865 75.9714Z" fill="white"/>
<path opacity="0.5" d="M227.901 116.321H227.553C227.379 116.321 227.379 116.147 227.379 116.147V115.799C227.379 115.625 227.553 115.625 227.553 115.625H227.901C228.074 115.625 228.074 115.799 228.074 115.799V116.147L227.901 116.321Z" fill="white"/>
<path opacity="0.5" d="M267.346 90.5807L266.998 90.4068C266.824 90.4068 266.824 90.2328 266.824 90.0589L266.998 89.7111C266.998 89.5372 267.172 89.5372 267.346 89.5372L267.693 89.7111C267.867 89.7111 267.867 89.885 267.867 90.0589L267.693 90.4068C267.519 90.5807 267.346 90.7546 267.346 90.5807Z" fill="white"/>
<path opacity="0.5" d="M174.728 77.8845L174.38 77.7106C174.207 77.7106 174.207 77.5367 174.207 77.3628L174.38 77.0149C174.38 76.841 174.554 76.841 174.728 76.841L175.075 77.0149C175.249 77.0149 175.249 77.1888 175.249 77.3628L175.075 77.7106C174.902 77.8845 174.728 77.8845 174.728 77.8845Z" fill="white"/>
<path opacity="0.5" d="M243.018 106.581L242.671 106.407C242.497 106.407 242.497 106.233 242.497 106.06L242.671 105.712C242.671 105.538 242.845 105.538 243.018 105.538L243.366 105.712C243.54 105.712 243.54 105.886 243.54 106.06L243.366 106.407C243.192 106.581 243.192 106.581 243.018 106.581Z" fill="white"/>
<path opacity="0.5" d="M282.116 49.1877L281.769 49.0138C281.595 49.0138 281.595 48.8399 281.595 48.666L281.769 48.3181C281.769 48.1442 281.942 48.1442 282.116 48.1442L282.464 48.3181C282.637 48.3181 282.637 48.4921 282.637 48.666L282.464 49.0138C282.29 49.1877 282.29 49.1877 282.116 49.1877Z" fill="white"/>
</g>
<path opacity="0.8" d="M311.83 219.803C287.85 233.717 248.753 233.717 224.773 219.803C212.262 212.499 206.18 202.933 206.701 193.367C191.583 164.671 169.689 137.539 129.375 65.1883C195.232 -10.4669 298.971 -27.511 398.888 53.0139C409.14 61.3621 338.417 175.106 329.902 193.367C330.423 202.933 324.515 212.673 311.83 219.803Z" fill="url(#paint17_linear_405_74)"/>
<defs>
<linearGradient id="paint0_linear_405_74" x1="264.595" y1="97.7377" x2="264.595" y2="175.856" gradientUnits="userSpaceOnUse">
<stop offset="0.0873016" stop-color="#EB5757"/>
<stop offset="0.9709" stop-color="#3C53D7"/>
</linearGradient>
<linearGradient id="paint1_linear_405_74" x1="258.841" y1="100.936" x2="258.841" y2="175.345" gradientUnits="userSpaceOnUse">
<stop offset="0.0873016" stop-color="#EB5757"/>
<stop offset="0.9709" stop-color="#3C53D7"/>
</linearGradient>
<linearGradient id="paint2_linear_405_74" x1="413.261" y1="363.771" x2="155.353" y2="282.856" gradientUnits="userSpaceOnUse">
<stop stop-color="#000053"/>
<stop offset="0.5425" stop-color="#23007F"/>
<stop offset="1" stop-color="#4F34D7"/>
</linearGradient>
<linearGradient id="paint3_linear_405_74" x1="266.519" y1="289.277" x2="266.519" y2="437.44" gradientUnits="userSpaceOnUse">
<stop offset="0.0873016" stop-color="#EB5757"/>
<stop offset="0.9709" stop-color="#3C53D7"/>
</linearGradient>
<linearGradient id="paint4_linear_405_74" x1="219.643" y1="245.493" x2="330.633" y2="383.797" gradientUnits="userSpaceOnUse">
<stop stop-color="#3C53D7"/>
<stop offset="1" stop-color="#1A1B6E"/>
</linearGradient>
<radialGradient id="paint5_radial_405_74" cx="0" cy="0" r="1" gradientUnits="userSpaceOnUse" gradientTransform="translate(265.38 303.686) scale(68.7558 58.0582)">
<stop stop-color="#2F3C9E"/>
<stop offset="0.1211" stop-color="#253184"/>
<stop offset="0.2995" stop-color="#192364"/>
<stop offset="0.4722" stop-color="#11194D"/>
<stop offset="0.635" stop-color="#0C1340"/>
<stop offset="0.7778" stop-color="#0A113B"/>
<stop offset="1" stop-color="#000020"/>
</radialGradient>
<radialGradient id="paint6_radial_405_74" cx="0" cy="0" r="1" gradientUnits="userSpaceOnUse" gradientTransform="translate(267.253 301.118) scale(57.8878 48.8811)">
<stop stop-color="#2F3C9E"/>
<stop offset="0.1211" stop-color="#253184"/>
<stop offset="0.2995" stop-color="#192364"/>
<stop offset="0.4722" stop-color="#11194D"/>
<stop offset="0.635" stop-color="#0C1340"/>
<stop offset="0.7778" stop-color="#0A113B"/>
<stop offset="1" stop-color="#000020"/>
</radialGradient>
<linearGradient id="paint7_linear_405_74" x1="268.148" y1="295.452" x2="268.148" y2="348.095" gradientUnits="userSpaceOnUse">
<stop offset="0.0873016" stop-color="#EB5757"/>
<stop offset="0.9709" stop-color="#3C53D7"/>
</linearGradient>
<linearGradient id="paint8_linear_405_74" x1="268.234" y1="268.548" x2="268.234" y2="338.173" gradientUnits="userSpaceOnUse">
<stop offset="0.0873016" stop-color="#EB5757"/>
<stop offset="0.9709" stop-color="#3C53D7"/>
</linearGradient>
<linearGradient id="paint9_linear_405_74" x1="268.148" y1="275.277" x2="268.148" y2="327.92" gradientUnits="userSpaceOnUse">
<stop offset="0.0873016" stop-color="#EB5757"/>
<stop offset="0.9709" stop-color="#3C53D7"/>
</linearGradient>
<linearGradient id="paint10_linear_405_74" x1="268.234" y1="248.2" x2="268.234" y2="317.824" gradientUnits="userSpaceOnUse">
<stop offset="0.0873016" stop-color="#EB5757"/>
<stop offset="0.9709" stop-color="#3C53D7"/>
</linearGradient>
<linearGradient id="paint11_linear_405_74" x1="268.148" y1="254.928" x2="268.148" y2="307.572" gradientUnits="userSpaceOnUse">
<stop offset="0.0873016" stop-color="#EB5757"/>
<stop offset="0.9709" stop-color="#3C53D7"/>
</linearGradient>
<linearGradient id="paint12_linear_405_74" x1="268.234" y1="227.851" x2="268.234" y2="297.476" gradientUnits="userSpaceOnUse">
<stop offset="0.0873016" stop-color="#EB5757"/>
<stop offset="0.9709" stop-color="#3C53D7"/>
</linearGradient>
<linearGradient id="paint13_linear_405_74" x1="268.148" y1="234.58" x2="268.148" y2="287.223" gradientUnits="userSpaceOnUse">
<stop offset="0.0873016" stop-color="#EB5757"/>
<stop offset="0.9709" stop-color="#3C53D7"/>
</linearGradient>
<linearGradient id="paint14_linear_405_74" x1="268.148" y1="207.676" x2="268.148" y2="277.301" gradientUnits="userSpaceOnUse">
<stop offset="0.0873016" stop-color="#EB5757"/>
<stop offset="0.9709" stop-color="#3C53D7"/>
</linearGradient>
<linearGradient id="paint15_linear_405_74" x1="268.148" y1="214.405" x2="268.148" y2="267.048" gradientUnits="userSpaceOnUse">
<stop offset="0.0873016" stop-color="#EB5757"/>
<stop offset="0.9709" stop-color="#3C53D7"/>
</linearGradient>
<linearGradient id="paint16_linear_405_74" x1="268.147" y1="187.328" x2="268.147" y2="256.952" gradientUnits="userSpaceOnUse">
<stop offset="0.0873016" stop-color="#EB5757"/>
<stop offset="0.9709" stop-color="#3C53D7"/>
</linearGradient>
<linearGradient id="paint17_linear_405_74" x1="262.487" y1="19.5265" x2="274.603" y2="243.463" gradientUnits="userSpaceOnUse">
<stop stop-color="#F1EBF9" stop-opacity="0"/>
<stop offset="0.252" stop-color="#F2EEFA" stop-opacity="0"/>
<stop offset="0.2989" stop-color="#F3F0FA" stop-opacity="0"/>
<stop offset="0.4873" stop-color="#EDF9FD" stop-opacity="0.137"/>
<stop offset="0.5741" stop-color="#E9FFFF" stop-opacity="0.2"/>
<stop offset="1" stop-color="#E6FFFF"/>
</linearGradient>
<clipPath id="clip0_405_74">
<rect width="614" height="309" fill="white" transform="translate(0 165.345)"/>
</clipPath>
</defs>
</svg>
